PathFileType	4	(X/Y/Z)	Walk10.trc
DataRate	CameraRate	NumFrames	NumMarkers	Units	OrigDataRate	OrigDataStartFrame	OrigNumFrames
200.000000	200.000000	4	56	mm	200.000000	409	519
Frame#	Times		RBHD		C7		RASI		RACR1		RUA1		RElbow		RFA1		LFA1		RTH3		RTH2		RTB1		RTB3		RMT1		LTH2		RMT5		RLFC		LElbowM		RTH1		RWRU		RTB2		LElbow		RTB4		RMMAL		LACR1		LTH3		LTH4		LWRU		CLAV		LASI		LTB1		LPSI		RPSI		T10		LLFC		RTH4		LBHD		RCAR		LTB3		LTH1		LTB4		RToe		LWRR		LMT1		RBack		LMMAL		LCAL		LFHD		LTB2		LLMAL		RLMAL		LCAR		LToe		LMT5		RElbowM		LUA1		RCAL
			X1	Y1	Z1	X2	Y2	Z2	X3	Y3	Z3	X4	Y4	Z4	X5	Y5	Z5	X6	Y6	Z6	X7	Y7	Z7	X8	Y8	Z8	X9	Y9	Z9	X10	Y10	Z10	X11	Y11	Z11	X12	Y12	Z12	X13	Y13	Z13	X14	Y14	Z14	X15	Y15	Z15	X16	Y16	Z16	X17	Y17	Z17	X18	Y18	Z18	X19	Y19	Z19	X20	Y20	Z20	X21	Y21	Z21	X22	Y22	Z22	X23	Y23	Z23	X24	Y24	Z24	X25	Y25	Z25	X26	Y26	Z26	X27	Y27	Z27	X28	Y28	Z28	X29	Y29	Z29	X30	Y30	Z30	X31	Y31	Z31	X32	Y32	Z32	X33	Y33	Z33	X34	Y34	Z34	X35	Y35	Z35	X36	Y36	Z36	X37	Y37	Z37	X38	Y38	Z38	X39	Y39	Z39	X40	Y40	Z40	X41	Y41	Z41	X42	Y42	Z42	X43	Y43	Z43	X44	Y44	Z44	X45	Y45	Z45	X46	Y46	Z46	X47	Y47	Z47	X48	Y48	Z48	X49	Y49	Z49	X50	Y50	Z50	X51	Y51	Z51	X52	Y52	Z52	X53	Y53	Z53	X54	Y54	Z54	X55	Y55	Z55	X56	Y56	Z56

409	2.045	724.82	1571.3	427.93	685.66	1433.1	351.73	780.35	934.82	482.87	744.28	1378.5	503.14	659.96	1196	574.53	585.99	1083.1	589.67	586.54	937.46	617.05	808.83	1016.7	27.265	848.93	565.6	522.9	868.29	681.34	504	953.63	400.97	430.17	1001.1	216.73	439.94	1132.7	100.7	406.6	759.76	630.89	209.05	1109.3	87.711	487.79	889.85	476.14	506.91	646.08	1095.4	122.21	767.92	735.64	541.74	541.32	812.5	609.02	962.56	308.35	507.82	670.79	1105.8	43.147	978.46	311.6	437.17	998.74	120.88	397.36	725.94	1424.3	177.22	676.42	554.03	181.11	697.86	639.5	163.15	844.86	903.4	36.69	819.04	1350.9	339.41	776.97	936.61	179.4	637.06	347.66	270.71	604.58	951.72	278.59	599.93	952.36	383.19	592.22	1122.2	329.25	631.6	441.36	202.27	808.4	649.88	534.25	704.54	1566.4	291.8	567.13	749.63	619.78	557.83	180.81	292.13	721.02	733.73	151.62	595.12	264.64	281.77	1169.8	128.12	434.03	898.94	951.09	76.05	607.24	34.127	353.33	609.07	1341.6	437.61	483.3	99.873	355.72	398.63	49.149	311.11	887.94	1595	286.73	575.05	266.26	212.94	457.56	82.448	266.63	975.95	99.553	482.38	929.24	907.03	29.297	655.62	25.209	345.42	583.46	30.535	260.2	568.61	1065.5	495.93	694.14	1235.1	70.843	949.1	34.586	442.22
410	2.05	731.14	1569.6	428.58	692.44	1431.8	351.8	787.34	933.97	482.86	750.98	1377.1	503.44	665.72	1195.2	574.53	591.07	1082.4	589.26	590.48	936.89	616.62	816.94	1016.8	27.78	854.75	563.73	523.04	874.13	679.66	503.55	961.52	401.21	429.55	1012.1	217.7	439.31	1145.7	103.33	405.63	764.84	629.78	208.71	1122.8	90.001	486.4	896.6	475.32	506.22	653.56	1094.6	122.3	774.16	734.85	542.07	544.22	812.17	608.19	972.19	308.81	507.22	678.39	1104.8	43.222	987.81	312.22	436.53	1011.1	121.87	396.81	733.14	1423.4	177.55	680.58	553.59	181.19	702.37	638.96	163.36	853.87	903.73	37.233	825.8	1349.5	339.9	783.09	935.53	179.28	640.09	347.12	270.93	611.07	950.71	279	606.36	951.24	383.87	598.83	1121.4	329.38	635.17	441.16	202.45	814.74	648.54	535.61	710.8	1564.9	292.56	569.78	748.84	618.7	559.38	180.99	292.16	726.36	733.03	151.63	597.47	264.57	281.85	1182.7	131.31	432.46	907.63	951.81	76.6	607.37	34.13	353.23	615.59	1340.5	437.44	483.98	100.65	355.83	398.86	50.83	311.31	894.09	1594.2	287.42	577.25	266.51	213.07	458.3	83.483	266.64	988.93	100.39	481.9	938.01	908.05	29.81	655.65	25.149	345.47	583.43	30.533	260.25	573.93	1065.3	495.25	701.75	1234.2	71.059	963.1	34.804	441.76
411	2.055	737.51	1568.2	429.37	699.01	1430.8	352.22	794.12	933.03	483.06	757.56	1375.9	503.78	671.59	1194.1	574.44	596.13	1081.8	588.71	594.53	936.24	616.33	825.11	1016.5	28.06	861.33	562.32	522.86	880.01	678.07	503.13	969.11	401.13	429.04	1022.4	218.45	438.76	1157.9	105.64	404.37	769.89	628.66	208.31	1135.3	92.032	485.08	903.51	474.49	505.69	660.98	1093.6	122.24	780.6	733.14	542.57	547.24	812.06	607.9	981.29	309.07	506.84	686.08	1103.9	43.095	996.78	312.72	435.94	1023.1	122.76	395.93	740.29	1422.4	178.04	684.69	553.2	181.32	707.15	638.36	163.36	862.61	903.86	37.88	832.43	1348.2	340.27	789.55	934.48	179.31	642.87	346.52	271.04	617.5	949.32	279.84	613	949.92	384.67	605.17	1120.3	329.75	638.75	440.8	202.76	821.08	647.75	537.1	717.18	1563.4	293.07	572.27	748.27	617.97	560.77	181.2	292.17	731.47	732.27	151.79	600.1	264.46	281.85	1194.6	134.11	431.15	916.07	952.37	77.018	607.36	34.108	353.27	622.4	1339.5	437.71	484.82	101.73	355.81	399.08	52.7	311.09	900.43	1593.7	288.12	579.48	266.7	213.1	458.91	84.708	266.71	1001.1	101.14	481.43	946.8	908.86	30.393	655.72	25.167	345.48	583.43	30.507	260.27	579.4	1065	494.67	709.18	1233.4	71.251	976.08	34.785	440.65
412	2.06	744.05	1566.8	430.19	705.94	1429.7	352.54	800.92	932.24	483.32	764.07	1374.6	504.23	677.25	1193.2	574.45	601.35	1081.5	588.63	598.79	935.58	615.89	833.13	1016.5	28.412	868.23	560.99	522.67	886.14	676.74	502.66	976.99	401.34	428.67	1032	219.19	437.86	1169.3	107.83	403.17	774.71	627.68	208.1	1146.9	93.68	483.72	910.71	473.91	505.13	668.48	1092.3	122.32	787.24	731.68	542.88	550.71	812.14	607.49	990.42	309.28	506.51	693.63	1103.1	43.05	1005.5	313.04	435.31	1034.4	123.65	395.06	747.63	1421.4	178.38	689.22	552.63	181.4	712.19	637.75	163.42	871.58	903.94	38.224	839.26	1347.2	340.9	795.72	933.37	179.3	645.9	345.92	271.2	623.93	948.37	280.63	619.9	948.89	385.26	611.77	1119	330.05	642.62	440.6	202.81	827.73	646.56	537.77	723.5	1562.3	293.51	574.79	747.98	617.33	562.32	181.55	292.15	736.75	731.49	152.04	602.22	264.31	281.91	1205.6	136.38	429.9	924.48	952.91	77.532	607.37	34.096	353.3	629.12	1338.4	438.1	485.59	102.81	355.83	399.37	54.312	311.34	906.89	1592.9	288.8	581.51	266.86	213.19	459.28	86.068	266.81	1012.7	101.76	480.85	955.72	909.56	30.821	655.74	25.099	345.49	583.42	30.493	260.27	584.82	1064.7	494.57	716.57	1232.6	71.471	988.21	34.722	439.41
